HIERARCHY
ROOT Hips
{
	OFFSET 0.00000 0.00000 0.00000
	CHANNELS 6 Xposition Yposition Zposition Zrotation Yrotation Xrotation 
	JOINT LHipJoint
	{
		OFFSET 0 0 0
		CHANNELS 3 Zrotation Yrotation Xrotation
		JOINT LeftUpLeg
		{
			OFFSET 1.56857 -1.73443 1.15205
			CHANNELS 3 Zrotation Yrotation Xrotation
			JOINT LeftLeg
			{
				OFFSET 2.39362 -6.57643 0.00000
				CHANNELS 3 Zrotation Yrotation Xrotation
				JOINT LeftFoot
				{
					OFFSET 2.50952 -6.89485 0.00000
					CHANNELS 3 Zrotation Yrotation Xrotation
					JOINT LeftToeBase
					{
						OFFSET 0.17171 -0.47178 1.88682
						CHANNELS 3 Zrotation Yrotation Xrotation
						End Site
						{
							OFFSET 0.00000 -0.00000 0.98146
						}
					}
				}
			}
		}
	}
	JOINT RHipJoint
	{
		OFFSET 0 0 0
		CHANNELS 3 Zrotation Yrotation Xrotation
		JOINT RightUpLeg
		{
			OFFSET -1.28153 -1.73443 1.15205
			CHANNELS 3 Zrotation Yrotation Xrotation
			JOINT RightLeg
			{
				OFFSET -2.26861 -6.23296 0.00000
				CHANNELS 3 Zrotation Yrotation Xrotation
				JOINT RightFoot
				{
					OFFSET -2.54143 -6.98254 0.00000
					CHANNELS 3 Zrotation Yrotation Xrotation
					JOINT RightToeBase
					{
						OFFSET -0.23309 -0.64041 1.93119
						CHANNELS 3 Zrotation Yrotation Xrotation
						End Site
						{
							OFFSET -0.00000 -0.00000 1.02013
						}
					}
				}
			}
		}
	}
	JOINT LowerBack
	{
		OFFSET 0 0 0
		CHANNELS 3 Zrotation Yrotation Xrotation
		JOINT Spine
		{
			OFFSET -0.07096 2.10460 -0.27878
			CHANNELS 3 Zrotation Yrotation Xrotation
			JOINT Spine1
			{
				OFFSET -0.00826 2.13662 -0.08279
				CHANNELS 3 Zrotation Yrotation Xrotation
				JOINT Neck
				{
					OFFSET 0 0 0
					CHANNELS 3 Zrotation Yrotation Xrotation
					JOINT Neck1
					{
						OFFSET 0.03239 1.77799 0.24435
						CHANNELS 3 Zrotation Yrotation Xrotation
						JOINT Head
						{
							OFFSET 0.01026 1.74194 -0.49664
							CHANNELS 3 Zrotation Yrotation Xrotation
							End Site
							{
								OFFSET 0.00170 1.83057 -0.19653
							}
						}
					}
				}
				JOINT LeftShoulder
				{
					OFFSET 0 0 0
					CHANNELS 3 Zrotation Yrotation Xrotation
					JOINT LeftArm
					{
						OFFSET 3.19178 1.35907 -0.31412
						CHANNELS 3 Zrotation Yrotation Xrotation
						JOINT LeftForeArm
						{
							OFFSET 4.85247 -0.00000 -0.00000
							CHANNELS 3 Zrotation Yrotation Xrotation
							JOINT LeftHand
							{
								OFFSET 3.55584 -0.00000 0.00000
								CHANNELS 3 Zrotation Yrotation Xrotation
								JOINT LeftFingerBase
								{
									OFFSET 0 0 0
									CHANNELS 3 Zrotation Yrotation Xrotation
									JOINT LeftHandIndex1
									{
										OFFSET 0.69320 -0.00000 0.00000
										CHANNELS 3 Zrotation Yrotation Xrotation
										End Site
										{
											OFFSET 0.55888 -0.00000 0.00000
										}
									}
								}
								JOINT LThumb
								{
									OFFSET 0 0 0
									CHANNELS 3 Zrotation Yrotation Xrotation
									End Site
									{
										OFFSET 0.56741 -0.00000 0.56741
									}
								}
							}
						}
					}
				}
				JOINT RightShoulder
				{
					OFFSET 0 0 0
					CHANNELS 3 Zrotation Yrotation Xrotation
					JOINT RightArm
					{
						OFFSET -3.28999 1.24191 -0.26899
						CHANNELS 3 Zrotation Yrotation Xrotation
						JOINT RightForeArm
						{
							OFFSET -4.64462 -0.00000 0.00000
							CHANNELS 3 Zrotation Yrotation Xrotation
							JOINT RightHand
							{
								OFFSET -3.40703 -0.00000 0.00000
								CHANNELS 3 Zrotation Yrotation Xrotation
								JOINT RightFingerBase
								{
									OFFSET 0 0 0
									CHANNELS 3 Zrotation Yrotation Xrotation
									JOINT RightHandIndex1
									{
										OFFSET -0.61958 -0.00000 0.00000
										CHANNELS 3 Zrotation Yrotation Xrotation
										End Site
										{
											OFFSET -0.49952 -0.00000 0.00000
										}
									}
								}
								JOINT RThumb
								{
									OFFSET 0 0 0
									CHANNELS 3 Zrotation Yrotation Xrotation
									End Site
									{
										OFFSET -0.50715 -0.00000 0.50715
									}
								}
							}
						}
					}
				}
			}
		}
	}
}
MOTION
Frames: 15
Frame Time: .0083333
-28.5567 17.0773 1.6181 0 0 0 0 0 0 -21 0 0 0 0 0 0 0 0 0 0 0 0 0 0 21 0 0 0 0 0 0 0 0 0 0 0 0 0 0 0 0 0 0 0 0 0 0 -16 0 0 21 0 0 11 0 0 0 -8 0 0 0 0 0 0 0 0 0 0 0 0 0 0 0 0 0 0 0 0 8 0 0 0 0 0 0 0 0 0 0 0 0 0 0 0 0 0
-28.5567 17.0773 1.6181 39.0000 84.6398 36.8662 0.0000 0.0000 0.0000 -18.1317 4.5121 13.8551 0.0301 -1.1197 -3.0782 0.0170 13.9414 -20.0028 0.0565 -1.5344 -4.2206 0.0000 0.0000 0.0000 8.1384 -6.1892 7.8545 -0.0231 -0.9803 2.6947 -0.4080 7.3698 -11.7329 -0.0780 -1.8019 4.9586 -4.1748 2.4783 5.8650 -1.7301 2.9809 -0.1516 0.2832 1.5522 -3.5657 4.1718 1.1174 -21.6207 1.8228 -0.1168 28.2051 0.0185 0.8204 13.0829 -0.0000 0.0000 0.0000 -0.0000 0.0000 -0.0000 -0.0000 0.0000 -0.0000 -0.0000 0.0000 0.0000 -0.0000 -0.0000 0.0000 -0.0000 -0.0000 0.0000 -0.0000 0.0000 0.0000 -0.0000 0.0000 0.0000 88.5857 -5.8728 33.1835 -16.0915 25.6445 -3.6855 0.0000 0.0000 8.1893 -10.9352 -30.8752 5.6622 7.1250 -0.0000 -0.0000 23.6147 -59.7352 -8.7908
-28.5591 17.0798 1.6200 40.9797 84.5552 38.7725 0.0000 0.0000 0.0000 -18.2964 4.6505 13.8389 0.0289 -1.0983 -3.0192 0.0362 13.7584 -19.9658 0.0438 -1.3509 -3.7148 0.0000 0.0000 0.0000 7.9513 -6.0473 8.0246 -0.0229 -0.9768 2.6851 -0.4282 7.2377 -11.9564 -0.0749 -1.7654 4.8579 -4.6144 2.3770 5.8604 -1.6167 2.8231 -0.0615 0.6621 1.4803 -3.4912 4.0580 1.2144 -21.6636 1.7618 0.0790 28.2248 0.0481 0.8839 13.1008 -0.0000 -0.0000 0.0000 -0.0000 0.0000 -0.0000 -0.0000 0.0000 -0.0000 -0.0000 0.0000 0.0000 -0.0000 -0.0000 0.0000 -0.0000 -0.0000 0.0000 -0.0000 0.0000 0.0000 -0.0000 -0.0000 0.0000 88.1239 -5.3798 34.8200 -16.0269 25.5571 -3.6576 0.0000 0.0000 6.6169 -11.2169 -32.5524 6.0907 7.1250 -0.0000 -0.0000 24.7719 -61.3130 -10.1906
-28.5599 17.0800 1.6217 40.0480 84.5695 37.8289 0.0000 0.0000 0.0000 -18.1401 4.7662 13.8256 0.0297 -1.1134 -3.0609 0.0231 13.7749 -19.8398 0.0449 -1.3683 -3.7628 0.0000 0.0000 0.0000 7.9937 -6.1634 7.9656 -0.0234 -0.9881 2.7161 -0.4207 7.3763 -11.8920 -0.0706 -1.7147 4.7179 -4.5359 2.3931 5.8462 -1.6085 2.8521 -0.0324 0.6258 1.4925 -3.4509 4.1151 1.2382 -21.7600 1.7342 0.0934 28.2524 0.0311 0.8930 13.1327 0.0000 0.0000 0.0000 -0.0000 0.0000 -0.0000 -0.0000 0.0000 -0.0000 -0.0000 0.0000 0.0000 -0.0000 -0.0000 0.0000 -0.0000 -0.0000 0.0000 -0.0000 0.0000 0.0000 0.0000 0.0000 0.0000 88.1240 -5.9035 34.8467 -16.7821 26.5697 -3.9894 0.0000 0.0000 6.3923 -10.9293 -33.3827 6.0649 7.1250 -0.0000 -0.0000 25.8549 -61.9806 -11.0798
-28.5584 17.0793 1.6225 38.7681 84.6654 36.5635 0.0000 0.0000 0.0000 -17.9389 4.7990 13.8062 0.0299 -1.1170 -3.0708 0.0051 13.8307 -19.7127 0.0634 -1.6250 -4.4703 0.0000 0.0000 0.0000 8.1868 -6.1630 7.9626 -0.0226 -0.9704 2.6674 -0.4133 7.3880 -11.8023 -0.0781 -1.8027 4.9606 -4.3745 2.3902 5.8594 -1.5675 2.8569 -0.0691 0.5763 1.4929 -3.4907 4.1041 1.2470 -21.7932 1.7368 0.1076 28.3017 0.0373 0.9002 13.1601 0.0000 -0.0000 0.0000 -0.0000 0.0000 -0.0000 -0.0000 0.0000 -0.0000 -0.0000 0.0000 0.0000 -0.0000 -0.0000 0.0000 -0.0000 -0.0000 0.0000 -0.0000 0.0000 0.0000 0.0000 -0.0000 0.0000 88.1631 -5.3914 34.9011 -16.1758 25.7585 -3.7220 0.0000 0.0000 6.3805 -11.1482 -32.9505 6.1180 7.1250 -0.0000 -0.0000 25.2127 -61.6515 -10.5881
-28.5532 17.0787 1.6193 41.2727 84.5627 39.0633 0.0000 0.0000 0.0000 -18.1470 5.1660 13.5825 0.0262 -1.0458 -2.8748 0.0162 13.4820 -19.3531 0.0972 -2.0105 -5.5347 0.0000 0.0000 0.0000 7.8213 -6.3504 7.9623 -0.0220 -0.9573 2.6312 -0.4008 7.5114 -11.6749 -0.0805 -1.8299 5.0357 -4.5790 2.3719 5.8451 -1.6398 2.8175 -0.0991 0.6187 1.4777 -3.5184 4.0137 1.2355 -21.7006 1.8199 0.1063 28.2913 0.0842 0.9017 13.1363 0.0000 0.0000 0.0000 -0.0000 0.0000 -0.0000 -0.0000 0.0000 -0.0000 -0.0000 0.0000 0.0000 -0.0000 -0.0000 0.0000 -0.0000 -0.0000 0.0000 -0.0000 0.0000 0.0000 0.0000 0.0000 0.0000 88.1515 -5.8362 34.7231 -16.5023 26.1969 -3.8650 0.0000 0.0000 6.6709 -11.3181 -32.3287 6.1093 7.1250 -0.0000 -0.0000 24.4631 -61.1371 -9.9522
-28.5466 17.0770 1.6153 43.8954 84.3902 41.6734 0.0000 0.0000 0.0000 -18.4295 5.5861 13.4025 0.0241 -1.0012 -2.7522 0.0301 13.1306 -19.0300 0.1166 -2.2016 -6.0631 0.0000 0.0000 0.0000 7.2572 -6.8754 7.8055 -0.0238 -0.9961 2.7381 -0.3722 7.9634 -11.4275 -0.0810 -1.8354 5.0509 -4.8258 2.3854 5.8369 -1.7414 2.8170 -0.1290 0.6504 1.4828 -3.5520 4.0060 1.2140 -21.6415 1.8461 0.0752 28.2866 0.0900 0.8915 13.1219 -0.0000 0.0000 0.0000 -0.0000 0.0000 -0.0000 -0.0000 0.0000 -0.0000 -0.0000 0.0000 0.0000 -0.0000 -0.0000 0.0000 -0.0000 -0.0000 0.0000 -0.0000 0.0000 0.0000 -0.0000 0.0000 0.0000 88.1807 -5.9753 34.2867 -16.3041 25.9312 -3.7779 0.0000 0.0000 7.5463 -11.9794 -30.1652 6.0859 7.1250 -0.0000 -0.0000 21.9684 -59.3258 -7.9231
-28.5418 17.0759 1.6143 44.5262 84.3182 42.3018 0.0000 0.0000 0.0000 -18.7006 5.3070 13.6583 0.0287 -1.0944 -3.0086 0.0103 13.4728 -19.2715 0.1048 -2.0878 -5.7483 0.0000 0.0000 0.0000 7.0554 -7.1054 7.7475 -0.0244 -1.0077 2.7700 -0.3576 8.1782 -11.3035 -0.0881 -1.9143 5.2689 -4.9287 2.3912 5.8230 -1.7538 2.8178 -0.1474 0.6947 1.4856 -3.5678 4.1119 1.2310 -21.7610 1.6963 0.1005 28.4138 0.0202 0.8968 13.1996 0.0000 -0.0000 0.0000 -0.0000 0.0000 -0.0000 -0.0000 0.0000 -0.0000 -0.0000 0.0000 0.0000 -0.0000 -0.0000 0.0000 -0.0000 -0.0000 0.0000 -0.0000 0.0000 0.0000 0.0000 -0.0000 0.0000 88.1269 -6.0029 34.6073 -16.5212 26.2222 -3.8734 0.0000 0.0000 6.8993 -11.9168 -30.9898 6.2015 7.1250 -0.0000 -0.0000 22.6888 -60.0673 -8.6049
-28.5394 17.0767 1.6126 45.2499 84.2423 43.0106 0.0000 0.0000 0.0000 -19.0061 4.8983 13.9250 0.0326 -1.1657 -3.2048 -0.0052 13.8342 -19.5987 0.0929 -1.9658 -5.4111 0.0000 0.0000 0.0000 6.9058 -7.1287 7.7835 -0.0233 -0.9860 2.7104 -0.3531 8.1785 -11.2460 -0.0885 -1.9187 5.2811 -4.9516 2.4061 5.7855 -1.8318 2.8388 -0.1205 0.6273 1.4953 -3.5169 4.1661 1.2232 -21.8368 1.6766 0.0700 28.4597 -0.0011 0.8881 13.2344 0.0000 -0.0000 0.0000 -0.0000 0.0000 -0.0000 -0.0000 0.0000 -0.0000 -0.0000 0.0000 0.0000 -0.0000 -0.0000 0.0000 -0.0000 -0.0000 0.0000 -0.0000 0.0000 0.0000 0.0000 -0.0000 0.0000 88.2504 -5.8590 34.1354 -16.1714 25.7525 -3.7201 0.0000 0.0000 7.7860 -12.3220 -29.2568 6.0936 7.1250 -0.0000 -0.0000 20.9344 -58.5628 -7.1426
-28.5396 17.0772 1.6125 45.3914 84.2606 43.1023 0.0000 0.0000 0.0000 -18.9037 5.1175 13.8075 0.0294 -1.1063 -3.0413 0.0049 13.6147 -19.4068 0.1152 -2.1883 -6.0263 0.0000 0.0000 0.0000 6.8949 -7.1613 7.8267 -0.0233 -0.9844 2.7059 -0.3510 8.1891 -11.2234 -0.0902 -1.9368 5.3310 -4.8354 2.4297 5.8640 -1.9106 2.8716 -0.1212 0.4749 1.5100 -3.5535 4.1291 1.1836 -21.7516 1.8294 -0.0157 28.3685 0.0486 0.8663 13.1786 0.0000 -0.0000 0.0000 -0.0000 0.0000 -0.0000 -0.0000 0.0000 -0.0000 -0.0000 0.0000 0.0000 -0.0000 -0.0000 0.0000 -0.0000 -0.0000 0.0000 -0.0000 0.0000 0.0000 0.0000 -0.0000 0.0000 88.4552 -5.7872 33.8415 -16.1032 25.6604 -3.6905 0.0000 0.0000 7.9749 -12.2406 -29.1559 6.0335 7.1250 -0.0000 -0.0000 20.9454 -58.4511 -7.0898
-28.5405 17.0766 1.6146 44.8501 84.3053 42.5334 0.0000 0.0000 0.0000 -18.6465 5.5041 13.6178 0.0263 -1.0471 -2.8784 0.0156 13.3171 -19.1162 0.1486 -2.4840 -6.8453 0.0000 0.0000 0.0000 7.0036 -7.1211 7.8619 -0.0235 -0.9889 2.7182 -0.3539 8.1713 -11.2540 -0.0920 -1.9568 5.3862 -4.7150 2.4502 5.9953 -1.9370 2.8950 -0.1816 0.3707 1.5218 -3.6837 4.1602 1.1659 -21.7155 1.8618 -0.0586 28.3922 0.0488 0.8572 13.1810 0.0000 -0.0000 0.0000 -0.0000 0.0000 -0.0000 -0.0000 0.0000 -0.0000 -0.0000 0.0000 0.0000 -0.0000 -0.0000 0.0000 -0.0000 -0.0000 0.0000 -0.0000 0.0000 0.0000 0.0000 -0.0000 0.0000 88.5280 -5.9039 34.0019 -16.2731 25.8895 -3.7644 0.0000 0.0000 7.4835 -12.0268 -30.0006 6.0805 7.1250 -0.0000 -0.0000 21.7929 -59.1850 -7.7818
-28.5403 17.0772 1.6142 45.0292 84.2529 42.7303 0.0000 0.0000 0.0000 -18.6663 5.6393 13.5426 0.0253 -1.0276 -2.8247 0.0392 13.1536 -19.1695 0.1233 -2.2638 -6.2352 0.0000 0.0000 0.0000 6.9492 -7.1061 7.8487 -0.0231 -0.9818 2.6986 -0.3527 8.2017 -11.2482 -0.0903 -1.9379 5.3341 -4.7432 2.4616 6.0158 -1.9617 2.9045 -0.2218 0.3576 1.5282 -3.7376 4.2131 1.1681 -21.7245 1.8079 -0.0572 28.4495 0.0197 0.8582 13.2067 -0.0000 0.0000 0.0000 -0.0000 0.0000 -0.0000 -0.0000 0.0000 -0.0000 -0.0000 0.0000 0.0000 -0.0000 -0.0000 0.0000 -0.0000 -0.0000 0.0000 -0.0000 0.0000 0.0000 -0.0000 0.0000 0.0000 88.4945 -5.9745 34.3017 -16.4344 26.1062 -3.8351 0.0000 0.0000 6.9332 -11.9471 -30.7109 6.1675 7.1250 -0.0000 -0.0000 22.4317 -59.8193 -8.3676
-28.5421 17.0770 1.6144 45.3201 84.2435 43.0278 0.0000 0.0000 0.0000 -18.7092 5.5967 13.5388 0.0248 -1.0158 -2.7922 0.0676 13.0366 -19.3425 0.0816 -1.8425 -5.0706 0.0000 0.0000 0.0000 6.9357 -7.0656 7.8603 -0.0227 -0.9733 2.6754 -0.3564 8.1907 -11.2915 -0.0905 -1.9399 5.3396 -4.8436 2.4467 6.0411 -1.9244 2.8763 -0.2312 0.4531 1.5168 -3.7674 4.2148 1.1790 -21.6940 1.7651 -0.0274 28.4061 0.0072 0.8634 13.1823 0.0000 -0.0000 0.0000 -0.0000 0.0000 -0.0000 -0.0000 0.0000 -0.0000 -0.0000 0.0000 0.0000 -0.0000 -0.0000 0.0000 -0.0000 -0.0000 0.0000 -0.0000 0.0000 0.0000 0.0000 -0.0000 0.0000 88.4093 -5.9356 34.1527 -16.1805 25.7648 -3.7241 0.0000 0.0000 7.5973 -12.1416 -29.8118 6.1050 7.1250 -0.0000 -0.0000 21.5307 -59.0367 -7.6055
-28.5449 17.0762 1.6166 45.8234 84.3206 43.5065 0.0000 0.0000 0.0000 -18.7878 5.2486 13.7408 0.0277 -1.0750 -2.9553 0.0481 13.3129 -19.4909 0.0731 -1.7448 -4.8009 0.0000 0.0000 0.0000 7.0518 -6.8728 7.9889 -0.0223 -0.9638 2.6492 -0.3765 7.9337 -11.4733 -0.1014 -2.0533 5.6531 -4.8706 2.4258 6.1259 -1.9053 2.8410 -0.2350 0.4873 1.5007 -3.8197 4.2452 1.1747 -21.6861 1.7240 -0.0321 28.3723 -0.0153 0.8575 13.1665 -0.0000 0.0000 0.0000 -0.0000 0.0000 -0.0000 -0.0000 0.0000 -0.0000 -0.0000 0.0000 0.0000 -0.0000 -0.0000 0.0000 -0.0000 -0.0000 0.0000 -0.0000 0.0000 0.0000 -0.0000 0.0000 0.0000 88.4269 -5.9313 34.1814 -16.3638 26.0114 -3.8041 0.0000 0.0000 7.1464 -11.5875 -31.1042 6.0465 7.1250 -0.0000 -0.0000 23.1261 -60.0946 -8.7967
-28.5440 17.0770 1.6160 45.9717 84.3866 43.6455 0.0000 0.0000 0.0000 -18.8685 4.9392 13.9145 0.0304 -1.1247 -3.0920 0.0089 13.7100 -19.5868 0.0829 -1.8572 -5.1113 0.0000 0.0000 0.0000 7.1209 -6.8167 8.0659 -0.0218 -0.9523 2.6175 -0.3842 7.7825 -11.5314 -0.1118 -2.1557 5.9360 -4.7512 2.4349 6.1465 -1.9406 2.8591 -0.2445 0.3816 1.5075 -3.8342 4.2038 1.1446 -21.6874 1.7946 -0.0811 28.4147 0.0113 0.8437 13.1840 -0.0000 0.0000 0.0000 -0.0000 0.0000 -0.0000 -0.0000 0.0000 -0.0000 -0.0000 0.0000 0.0000 -0.0000 -0.0000 0.0000 -0.0000 -0.0000 0.0000 -0.0000 0.0000 0.0000 -0.0000 0.0000 0.0000 88.5215 -5.9491 33.9190 -16.2223 25.8212 -3.7423 0.0000 0.0000 7.6567 -12.0773 -29.8105 6.0717 7.1250 -0.0000 -0.0000 21.5964 -59.0210 -7.6219
